<svg xmlns="http://www.w3.org/2000/svg" xml:space="preserve" width="24" height="24" viewBox="0 0 6.35 6.35">
    <path d="M-327.996 5625.211h24v24h-24z" style="opacity:1;fill:none;fill-opacity:1;stroke:none;stroke-width:2.05378;stroke-linecap:square;stroke-linejoin:round;stroke-dasharray:none;stroke-opacity:1" transform="translate(86.782 -1488.337)scale(.26458)"/>
    <path fill="currentColor" d="m-325.996 5630.918 3.038 5.316v-1.942c0-.88.293-1.686.784-2.327l-.598-1.047zm6.944 0a3.464 3.464 0 0 0-3.472 3.472v2.604h2.604v-3.472h2.604l1.302 2.604 1.302-2.604h2.604v3.472h2.604v-2.604a3.464 3.464 0 0 0-3.472-3.472zm9.796 0-.58 1.071a3.8 3.8 0 0 1 .766 2.303v1.95l3.074-5.324zm-13.268 6.51-3.472 6.076h3.224l1.984-3.472h9.548l.496.868h-7.44l-.868 1.736h9.3l.496.868h3.26l-3.508-6.076z" style="baseline-shift:baseline;display:inline;overflow:visible;vector-effect:none;fill-opacity:1;stroke-width:.314651;stroke-linecap:round;stroke-linejoin:round;stop-color:#000" transform="translate(86.782 -1488.337)scale(.26458)"/>
    <path d="M-318.662 5634.78v1.39h1.263l-.695-1.39zm4.728 0-.694 1.39h1.261v-1.39z" style="fill:#f92d93;fill-opacity:1;stroke-width:.0832513;stroke-linecap:square;stroke-linejoin:round" transform="translate(86.782 -1488.337)scale(.26458)"/>
</svg>
