<svg xmlns="http://www.w3.org/2000/svg" xml:space="preserve" width="182.417" height="40" viewBox="0 0 48.264 10.583"><path d="M-451.979 187.529h48.265v10.583h-48.265z" style="fill:none;fill-opacity:1;stroke-width:.0325827;stroke-linecap:square;stroke-linejoin:round" transform="translate(451.979 -187.529)"/><path d="M-2443.327-144.613c-1.196 0-2.159 1.001-2.159 2.245v11.111c0 1.244.963 2.247 2.16 2.247h46.259c1.196 0 2.16-1.003 2.16-2.247v-11.11c0-1.245-.964-2.246-2.16-2.246zm0 2.534h2.335l1.683 7.232h.03l1.845-7.232h2.188l1.815 7.322h.03l1.741-7.322h2.292l-2.858 10.626h-2.321l-1.801-7.233h-.03l-1.77 7.233h-2.367zm14.422 0h2.336v10.626h-2.336zm3.78 0h4.793c2.649 0 3.675 1.682 3.675 3.408s-1.026 3.408-3.675 3.408h-2.456v3.81h-2.337zm9.318 0h7.947v1.964h-5.61v2.277h5.15v1.816h-5.15v2.604h5.73v1.965h-8.067zm9.034 0h5.73c1.905 0 3.11 1.325 3.11 2.932 0 1.25-.506 2.186-1.681 2.663v.03c1.146.298 1.472 1.414 1.547 2.485.045.67.03 1.92.447 2.516h-2.337c-.283-.67-.253-1.697-.372-2.545-.164-1.116-.595-1.608-1.77-1.608h-2.337v4.153h-2.336zm-16.015 1.815v3.184h1.816c1.087 0 2.054-.237 2.054-1.591s-.967-1.593-2.054-1.593zm18.352 0v2.992h2.56c1.042 0 1.607-.447 1.607-1.518 0-1.027-.565-1.474-1.607-1.474z" style="fill:#fff;fill-opacity:1;stroke:none;stroke-width:.189721;stroke-linecap:square;stroke-linejoin:round;stroke-opacity:1" transform="translate(1106.479 63.903)scale(.44189)"/><path d="M-2503.84-131.454h2.189v-7.113h.03l4.42 7.113h2.336v-10.625h-2.188v7.128h-.03l-4.435-7.128h-2.321zm9.958-5.268c0 3.066 1.935 5.521 5.223 5.521 3.29 0 5.224-2.455 5.224-5.52 0-3.156-1.935-5.611-5.224-5.611-3.288 0-5.223 2.455-5.223 5.61m2.336 0c0-1.86.79-3.646 2.887-3.646 2.099 0 2.887 1.786 2.887 3.646 0 1.771-.788 3.557-2.887 3.557-2.098 0-2.887-1.786-2.887-3.557m8.41 5.268h8.959v-1.964h-5.849l5.7-6.816v-1.845h-8.364v1.964h5.253l-5.7 6.816zm9.034 0h8.959v-1.964h-5.849l5.7-6.816v-1.845h-8.363v1.964h5.253l-5.7 6.816zm9.72 0h7.514v-1.964h-5.179v-8.661h-2.336zm8.215 0h8.066v-1.964h-5.73v-2.604h5.15v-1.816h-5.15v-2.277h5.61v-1.964h-7.946z" aria-label="NOZZLE" style="font-weight:700;font-size:14.8818px;line-height:1.25;font-family:&quot;Helvetica Neue LT Std&quot;;-inkscape-font-specification:&quot;Helvetica Neue LT Std, Bold&quot;;letter-spacing:-.609023px;word-spacing:0;fill:#ee4b00;stroke-width:.0287823;stroke-linecap:square;stroke-linejoin:round" transform="translate(1106.479 63.903)scale(.44189)"/><path d="M-2444.274-124.47h1.12c.4 0 .745.145.745.714 0 .545-.418.714-.757.714h-1.108zm-.757 3.704h.757v-1.658h1.15c1.235.006 1.471-.793 1.471-1.326 0-.538-.236-1.337-1.47-1.337h-1.907zm4.886-3.577h.018l.647 1.858h-1.32zm-2.046 3.577h.78l.406-1.144h1.725l.406 1.144h.811l-1.665-4.321h-.805zm3.323-3.668h1.368v3.668h.757v-3.668h1.374v-.653h-3.499zm3.736 3.668h.756v-1.949h1.967v1.95h.757v-4.322h-.757v1.719h-1.967v-1.72h-.756zm9.346-2.276h-1.84v.576h1.15c-.012.732-.436 1.198-1.21 1.186-.926 0-1.314-.817-1.314-1.647 0-.829.388-1.646 1.314-1.646.544 0 1.04.29 1.113.86h.739c-.115-.975-.908-1.477-1.852-1.477-1.296 0-2.07 1.029-2.07 2.263 0 1.235.774 2.264 2.07 2.264.526 0 .895-.151 1.301-.611l.115.508h.484zm.576 2.276h3.153v-.653h-2.397v-1.265h2.18v-.618h-2.18v-1.132h2.355v-.653h-3.111zm3.535 0h.72v-3.177h.018l1.968 3.177h.799v-4.321h-.72v3.183h-.013l-1.973-3.183h-.799zm4.153 0h3.154v-.653h-2.397v-1.265h2.179v-.618h-2.18v-1.132h2.355v-.653h-3.111zm4.322-3.704h1.229c.393 0 .75.109.75.66 0 .454-.26.69-.738.69h-1.24zm-.756 3.704h.756v-1.78h1.114c.696 0 .86.352.86 1.145 0 .212 0 .448.114.635h.812c-.164-.175-.237-.635-.237-1.138 0-.684-.38-.877-.641-.914v-.012c.139-.048.714-.26.714-1.09 0-.732-.484-1.167-1.428-1.167h-2.064zm5.557-3.577h.018l.647 1.858h-1.32zm-2.046 3.577h.78l.406-1.144h1.725l.406 1.144h.81l-1.664-4.321h-.805zm3.323-3.668h1.368v3.668h.757v-3.668h1.374v-.653h-3.499zm5.594-.756c-1.296 0-2.07 1.029-2.07 2.263 0 1.235.774 2.264 2.07 2.264s2.07-1.029 2.07-2.264-.775-2.263-2.07-2.263m0 .617c.926 0 1.313.817 1.313 1.646 0 .83-.387 1.647-1.313 1.647s-1.314-.817-1.314-1.647c0-.829.388-1.646 1.314-1.646m3.269.103h1.228c.394 0 .751.109.751.66 0 .454-.26.69-.738.69h-1.241zm-.757 3.704h.757v-1.78h1.113c.697 0 .86.352.86 1.145 0 .212 0 .448.115.635h.811c-.163-.175-.236-.635-.236-1.138 0-.684-.381-.877-.642-.914v-.012c.14-.048.715-.26.715-1.09 0-.732-.485-1.167-1.429-1.167h-2.064z" aria-label="PATH GENERATOR" style="font-weight:500;font-size:6.05296px;line-height:1.25;font-family:&quot;Helvetica Neue LT Std&quot;;-inkscape-font-specification:&quot;Helvetica Neue LT Std, Medium&quot;;letter-spacing:-.247713px;word-spacing:0;fill:#fff;stroke-width:.0117068;stroke-linecap:square;stroke-linejoin:round" transform="translate(1106.479 63.903)scale(.44189)"/></svg>