<svg xmlns="http://www.w3.org/2000/svg" xml:space="preserve" width="752.116" height="290.976" viewBox="0 0 198.997 76.987">
    <path d="M1238.565 4362.488c-5.252 0-9.48 4.397-9.48 9.858v48.771c0 5.461 4.228 9.857 9.48 9.857h203.066c5.251 0 9.478-4.396 9.478-9.857v-48.771c0-5.461-4.227-9.858-9.478-9.858zm-.01 11.121h10.255l7.383 31.748h.131l8.1-31.748h9.603l7.969 32.14h.13l7.643-32.14h10.06l-12.542 46.643h-10.19l-7.904-31.748h-.13l-7.774 31.748h-10.387zm63.306 0h10.256v46.643h-10.256zm16.598 0h21.035c11.628 0 16.135 7.381 16.135 14.96 0 7.577-4.507 14.958-16.135 14.958h-10.78v16.725h-10.255zm40.898 0h34.885v8.623h-24.629v9.994h22.604v7.971h-22.604v11.432h25.15v8.623h-35.406zm39.658 0h25.15c8.363 0 13.653 5.814 13.653 12.87 0 5.487-2.22 9.602-7.38 11.693v.13c5.03 1.307 6.466 6.205 6.792 10.909.196 2.94.132 8.428 1.961 11.04h-10.256c-1.24-2.939-1.112-7.447-1.634-11.171-.719-4.9-2.613-7.055-7.774-7.055h-10.256v18.227h-10.256zm-70.3 7.969v13.98h7.968c4.77 0 9.016-1.045 9.016-6.99s-4.247-6.99-9.016-6.99zm80.556 0v13.13h11.237c4.572 0 7.054-1.96 7.054-6.663 0-4.508-2.482-6.467-7.054-6.467z" style="fill:#fff;fill-opacity:1;stroke:none;stroke-width:.832809;stroke-linecap:square;stroke-linejoin:round;stroke-opacity:1" transform="translate(-185.153 -1140.301)scale(.26458)"/>
    <path d="M972.935 4420.252h9.603v-31.226h.13l19.402 31.226h10.256v-46.643h-9.603v31.29h-.13l-19.467-31.29h-10.191zm43.708-23.126c0 13.457 8.492 24.236 22.93 24.236 14.436 0 22.929-10.779 22.929-24.236 0-13.849-8.493-24.628-22.93-24.628s-22.93 10.779-22.93 24.628m10.256 0c0-8.166 3.462-16.005 12.673-16.005s12.673 7.84 12.673 16.005c0 7.774-3.462 15.613-12.673 15.613s-12.673-7.84-12.673-15.613m36.914 23.126h37.196v-8.624h-23.543l25.02-29.919v-8.1h-36.713v8.623h23.06l-25.02 29.919zm39.658 0h39.326v-8.624h-25.673l25.02-29.919v-8.1h-36.713v8.623h23.06l-25.02 29.919zm42.663 0h32.99v-8.624h-22.734v-38.02h-10.256zm36.065 0h35.406v-8.624h-25.15v-11.432h22.603v-7.97h-22.603v-9.994h24.628v-8.623h-34.884z" aria-label="NOZZLE" style="font-weight:700;font-size:65.326px;line-height:1.25;font-family:&quot;Helvetica Neue LT Std&quot;;-inkscape-font-specification:&quot;Helvetica Neue LT Std, Bold&quot;;letter-spacing:-2.67341px;word-spacing:0;fill:#fd5000;fill-opacity:1;stroke-width:.126345;stroke-linecap:square;stroke-linejoin:round" transform="translate(-185.153 -1140.301)scale(.26458)"/>
    <path d="m950.883 4487.009 24.711 11.988 51.624-.489-11.744-12.233zM1014.784 4485.717 840.007 4311.07l-7.137-.26-8 6.229 125.89 169.358 62.757-.306z" style="fill:#e34400;fill-opacity:1;stroke:none;stroke-linecap:square;stroke-linejoin:round" transform="translate(-185.153 -1140.301)scale(.26458)"/>
    <path d="M1234.408 4450.907h4.915c1.754 0 3.268.638 3.268 3.136 0 2.391-1.833 3.135-3.32 3.135h-4.863zm-3.321 16.261h3.32v-7.28h5.05c5.42.027 6.456-3.48 6.456-5.819 0-2.365-1.036-5.872-6.457-5.872h-8.37zm21.444-15.703h.08l2.843 8.157h-5.792zm-8.98 15.703h3.427l1.78-5.021h7.572l1.78 5.022h3.561l-7.307-18.972h-3.534zm14.588-16.101h6.005v16.101h3.322v-16.101h6.031v-2.87h-15.358zm16.396 16.101h3.322v-8.555h8.635v8.555h3.321v-18.97h-3.32v7.545h-8.636v-7.546h-3.322zm41.03-9.99h-8.078v2.524h5.048c-.053 3.215-1.913 5.261-5.314 5.208-4.065 0-5.766-3.587-5.766-7.227s1.7-7.227 5.766-7.227c2.391 0 4.57 1.275 4.889 3.773h3.242c-.505-4.278-3.986-6.484-8.13-6.484-5.687 0-9.088 4.517-9.088 9.938 0 5.42 3.401 9.937 9.087 9.937 2.312 0 3.932-.664 5.713-2.684l.505 2.233h2.125zm2.525 9.99h13.844v-2.87h-10.522v-5.552h9.565v-2.71h-9.565v-4.97h10.336v-2.869h-13.658zm15.52 0h3.161v-13.95h.08l8.636 13.95h3.507v-18.97h-3.162v13.975h-.053l-8.662-13.976h-3.507zm18.229 0h13.843v-2.87h-10.522v-5.552h9.566v-2.71h-9.566v-4.97h10.336v-2.869h-13.657zm18.973-16.26h5.394c1.727 0 3.295.478 3.295 2.895 0 1.993-1.143 3.03-3.242 3.03h-5.447zm-3.321 16.26h3.321v-7.811h4.89c3.055 0 3.772 1.54 3.772 5.022 0 .93 0 1.966.505 2.79h3.56c-.717-.771-1.036-2.79-1.036-4.996 0-3.002-1.674-3.853-2.816-4.012v-.053c.611-.212 3.135-1.142 3.135-4.783 0-3.215-2.126-5.128-6.27-5.128h-9.061zm24.394-15.703h.08l2.843 8.157h-5.793zm-8.981 15.703h3.427l1.78-5.021h7.573l1.78 5.022h3.561l-7.307-18.972h-3.534zm14.59-16.101h6.004v16.101h3.321v-16.101h6.032v-2.87h-15.358zm24.552-3.322c-5.686 0-9.087 4.517-9.087 9.938 0 5.42 3.401 9.937 9.087 9.937s9.087-4.517 9.087-9.937-3.4-9.938-9.087-9.938m0 2.71c4.066 0 5.766 3.588 5.766 7.228s-1.7 7.227-5.766 7.227-5.766-3.587-5.766-7.227 1.701-7.227 5.766-7.227m14.35.452h5.394c1.727 0 3.295.479 3.295 2.896 0 1.993-1.143 3.03-3.242 3.03h-5.447zm-3.32 16.261h3.32v-7.811h4.89c3.055 0 3.772 1.54 3.772 5.022 0 .93 0 1.966.505 2.79h3.56c-.717-.771-1.036-2.79-1.036-4.996 0-3.002-1.674-3.853-2.816-4.012v-.053c.611-.212 3.135-1.142 3.135-4.783 0-3.215-2.125-5.128-6.27-5.128h-9.06z" aria-label="PATH GENERATOR" style="font-weight:500;font-size:26.5705px;line-height:1.25;font-family:&quot;Helvetica Neue LT Std&quot;;-inkscape-font-specification:&quot;Helvetica Neue LT Std, Medium&quot;;letter-spacing:-1.08738px;word-spacing:0;fill:#fff;stroke-width:.0513889;stroke-linecap:square;stroke-linejoin:round" transform="translate(-185.153 -1140.301)scale(.26458)"/>
    <path d="M1021.72 4562.138h429.223v-70.932l-4.499-4.671-315.212-.346-12.11 12.456-143.42.346z" style="fill:#9ca2a6;fill-opacity:1;stroke:none;stroke-linecap:square;stroke-linejoin:round;stroke-opacity:1" transform="translate(-185.153 -1140.301)scale(.26458)"/>
    <path d="m922.257 4599.688 510.86.245 17.86-18.105-.245-19.573-429.617-.031z" style="fill:#5a5e63;fill-opacity:1;stroke:none;stroke-linecap:square;stroke-linejoin:round;stroke-opacity:1" transform="translate(-185.153 -1140.301)scale(.26458)"/>
    <path d="m974.616 4498.153-23.978-11.622-125.512-169.797-118.907 88.202-3.18 5.015-1.346 2.814-1.101 5.505.244 4.159.857 5.016 2.201 4.893 5.383 7.34 10.031 13.334 108.631 147.043 93.707-.244 99.7-37.923z" style="fill:#7a8083;fill-opacity:1;stroke:none;stroke-linecap:square;stroke-linejoin:round;stroke-opacity:1" transform="translate(-185.153 -1140.301)scale(.26458)"/>
    <g fill="none" stroke="#000" stroke-linecap="round" stroke-linejoin="bevel" stroke-width="5" font-family="Arial" font-size="12" font-weight="400" style="fill-rule:evenodd;stroke:#9ca2a6;stroke-opacity:1">
        <path d="m478.475 49.073 21.411 1.59M452.43 68.348l26.045-19.275M2352.08 953.374H752.197M1498.25 616.802v160.61M2408.77 835.279v61.409M1371.89 636.879H1086.1M2391.05 616.802v160.61M1068.45 835.279h1340.32M2391.05 616.802h-892.8M752.197 953.374l316.253-118.095M1409.68 599.088l-37.79 37.791M461.565 953.374 77.288 434.132M2391.05 625.069h-9.44M1507.7 625.069h-9.45M1048.31 599.088l37.79 37.791M92.092 335.024 452.43 68.348M1086.1 636.879H921.623M845.217 599.088 452.43 68.348M2352.08 953.374l56.69-56.686M921.623 636.879l-76.406-37.791M845.217 599.088h203.093M752.197 953.374H461.565M2394.6 599.088h-984.92M921.623 636.879l146.827 198.4M499.886 50.663l548.424 548.425M2408.77 613.259l-14.17-14.171M2408.77 835.279v-222.02M1498.25 777.412l.16 3.285.45 3.256.76 3.201 1.05 3.116 1.33 3.005 1.61 2.869 1.87 2.708 2.11 2.522 2.33 2.317 2.54 2.09 2.72 1.845 2.88 1.585M2371.25 809.211l2.88-1.585 2.72-1.845 2.54-2.09 2.33-2.317 2.11-2.522 1.87-2.708 1.6-2.869 1.34-3.005 1.05-3.116.76-3.201.45-3.256.15-3.285M92.092 335.024l-3.788 3.01-3.575 3.261-3.343 3.497-3.097 3.717-2.837 3.92-2.561 4.104-2.276 4.27-1.98 4.414-1.673 4.54-1.36 4.643-1.04 4.726-.714 4.785-.387 4.823-.057 4.838.274 4.83.603 4.801.929 4.748 1.25 4.674 1.568 4.577 1.875 4.46 2.176 4.322 2.465 4.163 2.744 3.985M1756.07 693.417v50.781M1751.36 698.124v41.366M1873.63 698.124v41.366M1832.27 739.49h41.36M1832.27 739.49l-4.71 4.708M1832.27 698.124v41.366M1827.56 693.417h50.78M1832.27 698.124h41.36M1873.63 698.124l4.71-4.707M1939.48 693.417v50.781M1893.4 739.49h41.37M1705.28 693.417v50.781M1709.99 739.49l-4.71 4.708M1709.99 698.124v41.366M1705.28 693.417h50.79M1751.36 698.124l4.71-4.707M1766.42 744.198h50.78M1812.49 739.49l4.71 4.708M1771.13 698.124v41.366M1766.42 693.417h50.78M1771.13 698.124l-4.71-4.707M1812.49 698.124l4.71-4.707M2010.97 744.198h50.78M2057.04 739.49l4.71 4.708M2010.97 693.417v50.781M2015.68 739.49l-4.71 4.708M2118.18 698.124v41.366M2072.11 744.198h50.78M2072.11 693.417v50.781M2076.81 698.124h41.37M2133.24 744.198h50.78M2137.95 739.49h41.37M2137.95 698.124v41.366M2137.95 698.124l-4.71-4.707M1812.49 698.124v41.366M1817.2 748.331v50.781M1812.49 794.405l4.71 4.707M1771.13 794.405h41.36M1771.13 794.405l-4.71 4.707M1771.13 753.038v41.367M1709.99 794.405h41.37M1705.28 748.331v50.781M1709.99 794.405l-4.71 4.707M1709.99 753.038v41.367M1709.99 753.038l-4.71-4.707M1709.99 753.038h41.37M1690.22 753.038v41.367M1690.22 794.405l4.71 4.707M1648.85 794.405h41.37M1771.13 739.49h41.36M1644.15 748.331v50.781M1648.85 794.405l-4.7 4.707M1648.85 753.038h41.37M1629.08 753.038v41.367M1583.01 799.112h50.78M1629.08 794.405l4.71 4.707M1583.01 748.331v50.781M1587.72 794.405l-4.71 4.707M1587.72 753.038v41.367M2076.81 739.49h41.37M1587.72 753.038h41.36M1629.08 753.038l4.71-4.707M2245.16 693.417v50.781M2137.95 739.49l-4.71 4.708M2194.38 744.198h50.78M2199.09 739.49h41.36M2199.09 739.49l-4.71 4.708M1878.34 693.417v50.781M2199.09 698.124v41.366M1690.22 753.038l4.71-4.707M2199.09 698.124l-4.71-4.707M2240.45 698.124l4.71-4.707M2301.59 698.124v41.366M2255.52 744.198h50.78M2301.59 739.49l4.71 4.708M2260.22 698.124v41.366M2240.45 698.124v41.366M2255.52 693.417h50.78M2260.22 698.124h41.37M2301.59 698.124l4.71-4.707M2367.43 693.417v50.781M2362.73 698.124v41.366M2316.65 744.198h50.78M2122.89 693.417v50.781M2321.36 739.49h41.37M2316.65 693.417v50.781M2321.36 698.124v41.366M2316.65 693.417h50.78M2321.36 698.124h41.37M2137.95 698.124h41.37M2362.73 698.124l4.7-4.707M1751.36 753.038l4.71-4.707" style="stroke:#9ca2a6;stroke-opacity:1" transform="translate(-5.157 -3.943)scale(.08467)"/>
    </g>
    <path d="M1164.83 4496.63v49.81c0 4.272 2.194 6.541 6.764 6.541h261.771c4.391 0 6.765-2.214 6.765-6.542v-49.81z" style="fill:#7f8487;fill-opacity:1;stroke:#333;stroke-width:2.75;stroke-linecap:square;stroke-linejoin:round;stroke-dasharray:none;stroke-opacity:1" transform="translate(-185.153 -1140.301)scale(.26458)"/>
    <g style="fill:#1c1e21;fill-opacity:1" transform="translate(-185.153 -1193.218)scale(.26458)">
        <rect width="11.626" height="11.656" x="1169.598" y="4701.545" rx="0" ry="0" style="fill:#1c1e21;fill-opacity:1;stroke:none;stroke-linecap:square;stroke-linejoin:round;stroke-opacity:1"/>
        <rect width="11.626" height="11.656" x="1189.164" y="4701.545" rx="0" ry="0" style="fill:#1c1e21;fill-opacity:1;stroke:none;stroke-linecap:square;stroke-linejoin:round;stroke-opacity:1"/>
        <rect width="11.626" height="11.656" x="1208.73" y="4701.545" rx="0" ry="0" style="fill:#1c1e21;fill-opacity:1;stroke:none;stroke-linecap:square;stroke-linejoin:round;stroke-opacity:1"/>
        <rect width="11.626" height="11.656" x="1228.296" y="4701.545" rx="0" ry="0" style="fill:#1c1e21;fill-opacity:1;stroke:none;stroke-linecap:square;stroke-linejoin:round;stroke-opacity:1"/>
        <rect width="11.626" height="11.656" x="1247.862" y="4701.545" rx="0" ry="0" style="fill:#1c1e21;fill-opacity:1;stroke:none;stroke-linecap:square;stroke-linejoin:round;stroke-opacity:1"/>
        <rect width="11.626" height="11.656" x="1267.428" y="4701.545" rx="0" ry="0" style="fill:#1c1e21;fill-opacity:1;stroke:none;stroke-linecap:square;stroke-linejoin:round;stroke-opacity:1"/>
        <rect width="11.626" height="11.656" x="1286.994" y="4701.545" rx="0" ry="0" style="fill:#1c1e21;fill-opacity:1;stroke:none;stroke-linecap:square;stroke-linejoin:round;stroke-opacity:1"/>
        <rect width="11.626" height="11.656" x="1306.56" y="4701.545" rx="0" ry="0" style="fill:#1c1e21;fill-opacity:1;stroke:none;stroke-linecap:square;stroke-linejoin:round;stroke-opacity:1"/>
        <rect width="11.626" height="11.656" x="1326.126" y="4701.545" rx="0" ry="0" style="fill:#1c1e21;fill-opacity:1;stroke:none;stroke-linecap:square;stroke-linejoin:round;stroke-opacity:1"/>
        <rect width="11.626" height="11.656" x="1345.692" y="4701.545" rx="0" ry="0" style="fill:#1c1e21;fill-opacity:1;stroke:none;stroke-linecap:square;stroke-linejoin:round;stroke-opacity:1"/>
        <rect width="11.626" height="11.656" x="1365.258" y="4701.545" rx="0" ry="0" style="fill:#1c1e21;fill-opacity:1;stroke:none;stroke-linecap:square;stroke-linejoin:round;stroke-opacity:1"/>
        <rect width="11.626" height="11.656" x="1384.824" y="4701.545" rx="0" ry="0" style="fill:#1c1e21;fill-opacity:1;stroke:none;stroke-linecap:square;stroke-linejoin:round;stroke-opacity:1"/>
        <rect width="11.626" height="11.656" x="1404.391" y="4701.545" rx="0" ry="0" style="fill:#1c1e21;fill-opacity:1;stroke:none;stroke-linecap:square;stroke-linejoin:round;stroke-opacity:1"/>
        <rect width="11.626" height="11.656" x="1423.957" y="4701.545" rx="0" ry="0" style="fill:#1c1e21;fill-opacity:1;stroke:none;stroke-linecap:square;stroke-linejoin:round;stroke-opacity:1"/>
    </g>
    <g style="fill:#1c1e21;fill-opacity:1" transform="translate(-185.153 -1188.566)scale(.26458)">
        <rect width="11.626" height="11.656" x="1169.598" y="4701.545" rx="0" ry="0" style="fill:#1c1e21;fill-opacity:1;stroke:none;stroke-linecap:square;stroke-linejoin:round;stroke-opacity:1"/>
        <rect width="11.626" height="11.656" x="1189.164" y="4701.545" rx="0" ry="0" style="fill:#1c1e21;fill-opacity:1;stroke:none;stroke-linecap:square;stroke-linejoin:round;stroke-opacity:1"/>
        <rect width="11.626" height="11.656" x="1208.73" y="4701.545" rx="0" ry="0" style="fill:#1c1e21;fill-opacity:1;stroke:none;stroke-linecap:square;stroke-linejoin:round;stroke-opacity:1"/>
        <rect width="11.626" height="11.656" x="1228.296" y="4701.545" rx="0" ry="0" style="fill:#1c1e21;fill-opacity:1;stroke:none;stroke-linecap:square;stroke-linejoin:round;stroke-opacity:1"/>
        <rect width="11.626" height="11.656" x="1247.862" y="4701.545" rx="0" ry="0" style="fill:#1c1e21;fill-opacity:1;stroke:none;stroke-linecap:square;stroke-linejoin:round;stroke-opacity:1"/>
        <rect width="11.626" height="11.656" x="1267.428" y="4701.545" rx="0" ry="0" style="fill:#1c1e21;fill-opacity:1;stroke:none;stroke-linecap:square;stroke-linejoin:round;stroke-opacity:1"/>
        <rect width="11.626" height="11.656" x="1286.994" y="4701.545" rx="0" ry="0" style="fill:#1c1e21;fill-opacity:1;stroke:none;stroke-linecap:square;stroke-linejoin:round;stroke-opacity:1"/>
        <rect width="11.626" height="11.656" x="1306.56" y="4701.545" rx="0" ry="0" style="fill:#1c1e21;fill-opacity:1;stroke:none;stroke-linecap:square;stroke-linejoin:round;stroke-opacity:1"/>
        <rect width="11.626" height="11.656" x="1326.126" y="4701.545" rx="0" ry="0" style="fill:#1c1e21;fill-opacity:1;stroke:none;stroke-linecap:square;stroke-linejoin:round;stroke-opacity:1"/>
        <rect width="11.626" height="11.656" x="1345.692" y="4701.545" rx="0" ry="0" style="fill:#1c1e21;fill-opacity:1;stroke:none;stroke-linecap:square;stroke-linejoin:round;stroke-opacity:1"/>
        <rect width="11.626" height="11.656" x="1365.258" y="4701.545" rx="0" ry="0" style="fill:#1c1e21;fill-opacity:1;stroke:none;stroke-linecap:square;stroke-linejoin:round;stroke-opacity:1"/>
        <rect width="11.626" height="11.656" x="1384.824" y="4701.545" rx="0" ry="0" style="fill:#1c1e21;fill-opacity:1;stroke:none;stroke-linecap:square;stroke-linejoin:round;stroke-opacity:1"/>
        <rect width="11.626" height="11.656" x="1404.391" y="4701.545" rx="0" ry="0" style="fill:#1c1e21;fill-opacity:1;stroke:none;stroke-linecap:square;stroke-linejoin:round;stroke-opacity:1"/>
        <rect width="11.626" height="11.656" x="1423.957" y="4701.545" rx="0" ry="0" style="fill:#1c1e21;fill-opacity:1;stroke:none;stroke-linecap:square;stroke-linejoin:round;stroke-opacity:1"/>
    </g>
    <g style="fill:#1c1e21;fill-opacity:1" transform="translate(-185.153 -1183.914)scale(.26458)">
        <rect width="11.626" height="11.656" x="1169.598" y="4701.545" rx="0" ry="0" style="fill:#1c1e21;fill-opacity:1;stroke:none;stroke-linecap:square;stroke-linejoin:round;stroke-opacity:1"/>
        <rect width="11.626" height="11.656" x="1189.164" y="4701.545" rx="0" ry="0" style="fill:#1c1e21;fill-opacity:1;stroke:none;stroke-linecap:square;stroke-linejoin:round;stroke-opacity:1"/>
        <rect width="11.626" height="11.656" x="1208.73" y="4701.545" rx="0" ry="0" style="fill:#1c1e21;fill-opacity:1;stroke:none;stroke-linecap:square;stroke-linejoin:round;stroke-opacity:1"/>
        <rect width="11.626" height="11.656" x="1228.296" y="4701.545" rx="0" ry="0" style="fill:#1c1e21;fill-opacity:1;stroke:none;stroke-linecap:square;stroke-linejoin:round;stroke-opacity:1"/>
        <rect width="11.626" height="11.656" x="1247.862" y="4701.545" rx="0" ry="0" style="fill:#1c1e21;fill-opacity:1;stroke:none;stroke-linecap:square;stroke-linejoin:round;stroke-opacity:1"/>
        <rect width="11.626" height="11.656" x="1267.428" y="4701.545" rx="0" ry="0" style="fill:#1c1e21;fill-opacity:1;stroke:none;stroke-linecap:square;stroke-linejoin:round;stroke-opacity:1"/>
        <rect width="11.626" height="11.656" x="1286.994" y="4701.545" rx="0" ry="0" style="fill:#1c1e21;fill-opacity:1;stroke:none;stroke-linecap:square;stroke-linejoin:round;stroke-opacity:1"/>
        <rect width="11.626" height="11.656" x="1306.56" y="4701.545" rx="0" ry="0" style="fill:#1c1e21;fill-opacity:1;stroke:none;stroke-linecap:square;stroke-linejoin:round;stroke-opacity:1"/>
        <rect width="11.626" height="11.656" x="1326.126" y="4701.545" rx="0" ry="0" style="fill:#1c1e21;fill-opacity:1;stroke:none;stroke-linecap:square;stroke-linejoin:round;stroke-opacity:1"/>
        <rect width="11.626" height="11.656" x="1345.692" y="4701.545" rx="0" ry="0" style="fill:#1c1e21;fill-opacity:1;stroke:none;stroke-linecap:square;stroke-linejoin:round;stroke-opacity:1"/>
        <rect width="11.626" height="11.656" x="1365.258" y="4701.545" rx="0" ry="0" style="fill:#1c1e21;fill-opacity:1;stroke:none;stroke-linecap:square;stroke-linejoin:round;stroke-opacity:1"/>
        <rect width="11.626" height="11.656" x="1384.824" y="4701.545" rx="0" ry="0" style="fill:#1c1e21;fill-opacity:1;stroke:none;stroke-linecap:square;stroke-linejoin:round;stroke-opacity:1"/>
        <rect width="11.626" height="11.656" x="1404.391" y="4701.545" rx="0" ry="0" style="fill:#1c1e21;fill-opacity:1;stroke:none;stroke-linecap:square;stroke-linejoin:round;stroke-opacity:1"/>
        <rect width="11.626" height="11.656" x="1423.957" y="4701.545" rx="0" ry="0" style="fill:#1c1e21;fill-opacity:1;stroke:none;stroke-linecap:square;stroke-linejoin:round;stroke-opacity:1"/>
    </g>
</svg>
