<svg xmlns="http://www.w3.org/2000/svg" xmlns:xlink="http://www.w3.org/1999/xlink" xml:space="preserve" width="139.844" height="30.237" viewBox="0 0 37.001 8"><defs><linearGradient id="a"><stop offset="0" style="stop-color:#35393d;stop-opacity:1"/><stop offset="1" style="stop-color:#4d5155;stop-opacity:1"/></linearGradient><linearGradient xlink:href="#a" id="b" x1="2102.238" x2="2199.285" y1="864.337" y2="850.725" gradientTransform="matrix(1.01384 0 0 1.00404 -28.535 -3.43)" gradientUnits="userSpaceOnUse"/></defs><path d="M2062.112 850.035V876c0 2.118 1.722 3.823 3.86 3.823h131.534c2.138 0 3.86-1.705 3.86-3.823v-25.966z" style="fill:#35393d;fill-opacity:1;stroke-width:3.86818;stroke-linecap:square;stroke-linejoin:round" transform="translate(-545.526 -224.82)scale(.26458)"/><path d="M2062.112 850.035V876c0 2.118 1.722 3.823 3.86 3.823h131.534c2.138 0 3.86-1.705 3.86-3.823v-25.966z" style="fill:url(#b);fill-opacity:1;stroke-width:3.86818;stroke-linecap:square;stroke-linejoin:round" transform="translate(-545.526 -224.82)scale(.26458)"/><path d="M2064.289 852.326h7.951v7.953h-7.951z" style="fill:none;stroke:none" transform="matrix(.26824 0 0 .26565 -553.076 -225.728)"/><path d="M2064.29 852.326v7.953h7.95l-.763-.765h-6.409v-6.407z" style="fill:#222426;fill-opacity:1;stroke-width:2.73946;stroke-linecap:square;stroke-linejoin:round" transform="matrix(.26824 0 0 .26565 -553.076 -225.728)"/><path d="m2064.29 852.326.778.781h6.409v6.407l.763.765v-7.953z" style="fill:#3b4044;fill-opacity:1;stroke-width:2.73946;stroke-linecap:square;stroke-linejoin:round" transform="matrix(.26824 0 0 .26565 -553.076 -225.728)"/><path d="M2064.289 852.326h7.951v7.953h-7.951z" style="fill:none;stroke:none" transform="matrix(.26824 0 0 .26565 -550.496 -225.728)"/><path d="M2064.29 852.326v7.953h7.95l-.763-.765h-6.409v-6.407z" style="fill:#222426;fill-opacity:1;stroke-width:2.73946;stroke-linecap:square;stroke-linejoin:round" transform="matrix(.26824 0 0 .26565 -550.496 -225.728)"/><path d="m2064.29 852.326.778.781h6.409v6.407l.763.765v-7.953z" style="fill:#3b4044;fill-opacity:1;stroke-width:2.73946;stroke-linecap:square;stroke-linejoin:round" transform="matrix(.26824 0 0 .26565 -550.496 -225.728)"/><path d="M2064.289 852.326h7.951v7.953h-7.951z" style="fill:none;stroke:none" transform="matrix(.26824 0 0 .26565 -547.916 -225.728)"/><path d="M2064.29 852.326v7.953h7.95l-.763-.765h-6.409v-6.407z" style="fill:#222426;fill-opacity:1;stroke-width:2.73946;stroke-linecap:square;stroke-linejoin:round" transform="matrix(.26824 0 0 .26565 -547.916 -225.728)"/><path d="m2064.29 852.326.778.781h6.409v6.407l.763.765v-7.953z" style="fill:#3b4044;fill-opacity:1;stroke-width:2.73946;stroke-linecap:square;stroke-linejoin:round" transform="matrix(.26824 0 0 .26565 -547.916 -225.728)"/><path d="M2064.289 852.326h7.951v7.953h-7.951z" style="fill:none;stroke:none" transform="matrix(.26824 0 0 .26565 -545.337 -225.728)"/><path d="M2064.29 852.326v7.953h7.95l-.763-.765h-6.409v-6.407z" style="fill:#222426;fill-opacity:1;stroke-width:2.73946;stroke-linecap:square;stroke-linejoin:round" transform="matrix(.26824 0 0 .26565 -545.337 -225.728)"/><path d="m2064.29 852.326.778.781h6.409v6.407l.763.765v-7.953z" style="fill:#3b4044;fill-opacity:1;stroke-width:2.73946;stroke-linecap:square;stroke-linejoin:round" transform="matrix(.26824 0 0 .26565 -545.337 -225.728)"/><path d="M2064.289 852.326h7.951v7.953h-7.951z" style="fill:none;stroke:none" transform="matrix(.26824 0 0 .26565 -542.757 -225.728)"/><path d="M2064.29 852.326v7.953h7.95l-.763-.765h-6.409v-6.407z" style="fill:#222426;fill-opacity:1;stroke-width:2.73946;stroke-linecap:square;stroke-linejoin:round" transform="matrix(.26824 0 0 .26565 -542.757 -225.728)"/><path d="m2064.29 852.326.778.781h6.409v6.407l.763.765v-7.953z" style="fill:#3b4044;fill-opacity:1;stroke-width:2.73946;stroke-linecap:square;stroke-linejoin:round" transform="matrix(.26824 0 0 .26565 -542.757 -225.728)"/><path d="M2064.289 852.326h7.951v7.953h-7.951z" style="fill:none;stroke:none" transform="matrix(.26824 0 0 .26565 -540.178 -225.728)"/><path d="M2064.29 852.326v7.953h7.95l-.763-.765h-6.409v-6.407z" style="fill:#222426;fill-opacity:1;stroke-width:2.73946;stroke-linecap:square;stroke-linejoin:round" transform="matrix(.26824 0 0 .26565 -540.178 -225.728)"/><path d="m2064.29 852.326.778.781h6.409v6.407l.763.765v-7.953z" style="fill:#3b4044;fill-opacity:1;stroke-width:2.73946;stroke-linecap:square;stroke-linejoin:round" transform="matrix(.26824 0 0 .26565 -540.178 -225.728)"/><path d="M2064.289 852.326h7.951v7.953h-7.951z" style="fill:none;stroke:none" transform="matrix(.26824 0 0 .26565 -537.598 -225.728)"/><path d="M2064.29 852.326v7.953h7.95l-.763-.765h-6.409v-6.407z" style="fill:#222426;fill-opacity:1;stroke-width:2.73946;stroke-linecap:square;stroke-linejoin:round" transform="matrix(.26824 0 0 .26565 -537.598 -225.728)"/><path d="m2064.29 852.326.778.781h6.409v6.407l.763.765v-7.953z" style="fill:#3b4044;fill-opacity:1;stroke-width:2.73946;stroke-linecap:square;stroke-linejoin:round" transform="matrix(.26824 0 0 .26565 -537.598 -225.728)"/><path d="M2064.289 852.326h7.951v7.953h-7.951z" style="fill:none;stroke:none" transform="matrix(.26824 0 0 .26565 -535.018 -225.728)"/><path d="M2064.29 852.326v7.953h7.95l-.763-.765h-6.409v-6.407z" style="fill:#222426;fill-opacity:1;stroke-width:2.73946;stroke-linecap:square;stroke-linejoin:round" transform="matrix(.26824 0 0 .26565 -535.018 -225.728)"/><path d="m2064.29 852.326.778.781h6.409v6.407l.763.765v-7.953z" style="fill:#3b4044;fill-opacity:1;stroke-width:2.73946;stroke-linecap:square;stroke-linejoin:round" transform="matrix(.26824 0 0 .26565 -535.018 -225.728)"/><path d="M2064.289 852.326h7.951v7.953h-7.951z" style="fill:none;stroke:none" transform="matrix(.26824 0 0 .26565 -532.439 -225.728)"/><path d="M2064.29 852.326v7.953h7.95l-.763-.765h-6.409v-6.407z" style="fill:#222426;fill-opacity:1;stroke-width:2.73946;stroke-linecap:square;stroke-linejoin:round" transform="matrix(.26824 0 0 .26565 -532.439 -225.728)"/><path d="m2064.29 852.326.778.781h6.409v6.407l.763.765v-7.953z" style="fill:#3b4044;fill-opacity:1;stroke-width:2.73946;stroke-linecap:square;stroke-linejoin:round" transform="matrix(.26824 0 0 .26565 -532.439 -225.728)"/><path d="M2064.289 852.326h7.951v7.953h-7.951z" style="fill:none;stroke:none" transform="matrix(.26824 0 0 .26565 -529.86 -225.728)"/><path d="M2064.29 852.326v7.953h7.95l-.763-.765h-6.409v-6.407z" style="fill:#222426;fill-opacity:1;stroke-width:2.73946;stroke-linecap:square;stroke-linejoin:round" transform="matrix(.26824 0 0 .26565 -529.86 -225.728)"/><path d="m2064.29 852.326.778.781h6.409v6.407l.763.765v-7.953z" style="fill:#3b4044;fill-opacity:1;stroke-width:2.73946;stroke-linecap:square;stroke-linejoin:round" transform="matrix(.26824 0 0 .26565 -529.86 -225.728)"/><path d="M2064.289 852.326h7.951v7.953h-7.951z" style="fill:none;stroke:none" transform="matrix(.26824 0 0 .26565 -527.28 -225.728)"/><path d="M2064.29 852.326v7.953h7.95l-.763-.765h-6.409v-6.407z" style="fill:#222426;fill-opacity:1;stroke-width:2.73946;stroke-linecap:square;stroke-linejoin:round" transform="matrix(.26824 0 0 .26565 -527.28 -225.728)"/><path d="m2064.29 852.326.778.781h6.409v6.407l.763.765v-7.953z" style="fill:#3b4044;fill-opacity:1;stroke-width:2.73946;stroke-linecap:square;stroke-linejoin:round" transform="matrix(.26824 0 0 .26565 -527.28 -225.728)"/><path d="M2064.289 852.326h7.951v7.953h-7.951z" style="fill:none;stroke:none" transform="matrix(.26824 0 0 .26565 -524.7 -225.728)"/><path d="M2064.29 852.326v7.953h7.95l-.763-.765h-6.409v-6.407z" style="fill:#222426;fill-opacity:1;stroke-width:2.73946;stroke-linecap:square;stroke-linejoin:round" transform="matrix(.26824 0 0 .26565 -524.7 -225.728)"/><path d="m2064.29 852.326.778.781h6.409v6.407l.763.765v-7.953z" style="fill:#3b4044;fill-opacity:1;stroke-width:2.73946;stroke-linecap:square;stroke-linejoin:round" transform="matrix(.26824 0 0 .26565 -524.7 -225.728)"/><path d="M2064.289 852.326h7.951v7.953h-7.951z" style="fill:none;stroke:none" transform="matrix(.26824 0 0 .26565 -522.12 -225.728)"/><path d="M2064.29 852.326v7.953h7.95l-.763-.765h-6.409v-6.407z" style="fill:#222426;fill-opacity:1;stroke-width:2.73946;stroke-linecap:square;stroke-linejoin:round" transform="matrix(.26824 0 0 .26565 -522.12 -225.728)"/><path d="m2064.29 852.326.778.781h6.409v6.407l.763.765v-7.953z" style="fill:#3b4044;fill-opacity:1;stroke-width:2.73946;stroke-linecap:square;stroke-linejoin:round" transform="matrix(.26824 0 0 .26565 -522.12 -225.728)"/><path d="M2064.289 852.326h7.951v7.953h-7.951z" style="fill:none;stroke:none" transform="matrix(.26824 0 0 .26565 -519.54 -225.728)"/><path d="M2064.29 852.326v7.953h7.95l-.763-.765h-6.409v-6.407z" style="fill:#222426;fill-opacity:1;stroke-width:2.73946;stroke-linecap:square;stroke-linejoin:round" transform="matrix(.26824 0 0 .26565 -519.54 -225.728)"/><path d="m2064.29 852.326.778.781h6.409v6.407l.763.765v-7.953z" style="fill:#3b4044;fill-opacity:1;stroke-width:2.73946;stroke-linecap:square;stroke-linejoin:round" transform="matrix(.26824 0 0 .26565 -519.54 -225.728)"/><path d="M2064.289 852.326h7.951v7.953h-7.951z" style="fill:none;stroke:none" transform="matrix(.26824 0 0 .26565 -553.076 -223.442)"/><path d="M2064.29 852.326v7.953h7.95l-.763-.765h-6.409v-6.407z" style="fill:#222426;fill-opacity:1;stroke-width:2.73946;stroke-linecap:square;stroke-linejoin:round" transform="matrix(.26824 0 0 .26565 -553.076 -223.442)"/><path d="m2064.29 852.326.778.781h6.409v6.407l.763.765v-7.953z" style="fill:#3b4044;fill-opacity:1;stroke-width:2.73946;stroke-linecap:square;stroke-linejoin:round" transform="matrix(.26824 0 0 .26565 -553.076 -223.442)"/><path d="M2064.289 852.326h7.951v7.953h-7.951z" style="fill:none;stroke:none" transform="matrix(.26824 0 0 .26565 -550.496 -223.442)"/><path d="M2064.29 852.326v7.953h7.95l-.763-.765h-6.409v-6.407z" style="fill:#222426;fill-opacity:1;stroke-width:2.73946;stroke-linecap:square;stroke-linejoin:round" transform="matrix(.26824 0 0 .26565 -550.496 -223.442)"/><path d="m2064.29 852.326.778.781h6.409v6.407l.763.765v-7.953z" style="fill:#3b4044;fill-opacity:1;stroke-width:2.73946;stroke-linecap:square;stroke-linejoin:round" transform="matrix(.26824 0 0 .26565 -550.496 -223.442)"/><path d="M2064.289 852.326h7.951v7.953h-7.951z" style="fill:none;stroke:none" transform="matrix(.26824 0 0 .26565 -547.916 -223.442)"/><path d="M2064.29 852.326v7.953h7.95l-.763-.765h-6.409v-6.407z" style="fill:#222426;fill-opacity:1;stroke-width:2.73946;stroke-linecap:square;stroke-linejoin:round" transform="matrix(.26824 0 0 .26565 -547.916 -223.442)"/><path d="m2064.29 852.326.778.781h6.409v6.407l.763.765v-7.953z" style="fill:#3b4044;fill-opacity:1;stroke-width:2.73946;stroke-linecap:square;stroke-linejoin:round" transform="matrix(.26824 0 0 .26565 -547.916 -223.442)"/><path d="M2064.289 852.326h7.951v7.953h-7.951z" style="fill:none;stroke:none" transform="matrix(.26824 0 0 .26565 -545.337 -223.442)"/><path d="M2064.29 852.326v7.953h7.95l-.763-.765h-6.409v-6.407z" style="fill:#222426;fill-opacity:1;stroke-width:2.73946;stroke-linecap:square;stroke-linejoin:round" transform="matrix(.26824 0 0 .26565 -545.337 -223.442)"/><path d="m2064.29 852.326.778.781h6.409v6.407l.763.765v-7.953z" style="fill:#3b4044;fill-opacity:1;stroke-width:2.73946;stroke-linecap:square;stroke-linejoin:round" transform="matrix(.26824 0 0 .26565 -545.337 -223.442)"/><path d="M2064.289 852.326h7.951v7.953h-7.951z" style="fill:none;stroke:none" transform="matrix(.26824 0 0 .26565 -542.757 -223.442)"/><path d="M2064.29 852.326v7.953h7.95l-.763-.765h-6.409v-6.407z" style="fill:#222426;fill-opacity:1;stroke-width:2.73946;stroke-linecap:square;stroke-linejoin:round" transform="matrix(.26824 0 0 .26565 -542.757 -223.442)"/><path d="m2064.29 852.326.778.781h6.409v6.407l.763.765v-7.953z" style="fill:#3b4044;fill-opacity:1;stroke-width:2.73946;stroke-linecap:square;stroke-linejoin:round" transform="matrix(.26824 0 0 .26565 -542.757 -223.442)"/><path d="M2064.289 852.326h7.951v7.953h-7.951z" style="fill:none;stroke:none" transform="matrix(.26824 0 0 .26565 -540.178 -223.442)"/><path d="M2064.29 852.326v7.953h7.95l-.763-.765h-6.409v-6.407z" style="fill:#222426;fill-opacity:1;stroke-width:2.73946;stroke-linecap:square;stroke-linejoin:round" transform="matrix(.26824 0 0 .26565 -540.178 -223.442)"/><path d="m2064.29 852.326.778.781h6.409v6.407l.763.765v-7.953z" style="fill:#3b4044;fill-opacity:1;stroke-width:2.73946;stroke-linecap:square;stroke-linejoin:round" transform="matrix(.26824 0 0 .26565 -540.178 -223.442)"/><path d="M2064.289 852.326h7.951v7.953h-7.951z" style="fill:none;stroke:none" transform="matrix(.26824 0 0 .26565 -537.598 -223.442)"/><path d="M2064.29 852.326v7.953h7.95l-.763-.765h-6.409v-6.407z" style="fill:#222426;fill-opacity:1;stroke-width:2.73946;stroke-linecap:square;stroke-linejoin:round" transform="matrix(.26824 0 0 .26565 -537.598 -223.442)"/><path d="m2064.29 852.326.778.781h6.409v6.407l.763.765v-7.953z" style="fill:#3b4044;fill-opacity:1;stroke-width:2.73946;stroke-linecap:square;stroke-linejoin:round" transform="matrix(.26824 0 0 .26565 -537.598 -223.442)"/><path d="M2064.289 852.326h7.951v7.953h-7.951z" style="fill:none;stroke:none" transform="matrix(.26824 0 0 .26565 -535.018 -223.442)"/><path d="M2064.29 852.326v7.953h7.95l-.763-.765h-6.409v-6.407z" style="fill:#222426;fill-opacity:1;stroke-width:2.73946;stroke-linecap:square;stroke-linejoin:round" transform="matrix(.26824 0 0 .26565 -535.018 -223.442)"/><path d="m2064.29 852.326.778.781h6.409v6.407l.763.765v-7.953z" style="fill:#3b4044;fill-opacity:1;stroke-width:2.73946;stroke-linecap:square;stroke-linejoin:round" transform="matrix(.26824 0 0 .26565 -535.018 -223.442)"/><path d="M2064.289 852.326h7.951v7.953h-7.951z" style="fill:none;stroke:none" transform="matrix(.26824 0 0 .26565 -532.439 -223.442)"/><path d="M2064.29 852.326v7.953h7.95l-.763-.765h-6.409v-6.407z" style="fill:#222426;fill-opacity:1;stroke-width:2.73946;stroke-linecap:square;stroke-linejoin:round" transform="matrix(.26824 0 0 .26565 -532.439 -223.442)"/><path d="m2064.29 852.326.778.781h6.409v6.407l.763.765v-7.953z" style="fill:#3b4044;fill-opacity:1;stroke-width:2.73946;stroke-linecap:square;stroke-linejoin:round" transform="matrix(.26824 0 0 .26565 -532.439 -223.442)"/><path d="M2064.289 852.326h7.951v7.953h-7.951z" style="fill:none;stroke:none" transform="matrix(.26824 0 0 .26565 -529.86 -223.442)"/><path d="M2064.29 852.326v7.953h7.95l-.763-.765h-6.409v-6.407z" style="fill:#222426;fill-opacity:1;stroke-width:2.73946;stroke-linecap:square;stroke-linejoin:round" transform="matrix(.26824 0 0 .26565 -529.86 -223.442)"/><path d="m2064.29 852.326.778.781h6.409v6.407l.763.765v-7.953z" style="fill:#3b4044;fill-opacity:1;stroke-width:2.73946;stroke-linecap:square;stroke-linejoin:round" transform="matrix(.26824 0 0 .26565 -529.86 -223.442)"/><path d="M2064.289 852.326h7.951v7.953h-7.951z" style="fill:none;stroke:none" transform="matrix(.26824 0 0 .26565 -527.28 -223.442)"/><path d="M2064.29 852.326v7.953h7.95l-.763-.765h-6.409v-6.407z" style="fill:#222426;fill-opacity:1;stroke-width:2.73946;stroke-linecap:square;stroke-linejoin:round" transform="matrix(.26824 0 0 .26565 -527.28 -223.442)"/><path d="m2064.29 852.326.778.781h6.409v6.407l.763.765v-7.953z" style="fill:#3b4044;fill-opacity:1;stroke-width:2.73946;stroke-linecap:square;stroke-linejoin:round" transform="matrix(.26824 0 0 .26565 -527.28 -223.442)"/><path d="M2064.289 852.326h7.951v7.953h-7.951z" style="fill:none;stroke:none" transform="matrix(.26824 0 0 .26565 -524.7 -223.442)"/><path d="M2064.29 852.326v7.953h7.95l-.763-.765h-6.409v-6.407z" style="fill:#222426;fill-opacity:1;stroke-width:2.73946;stroke-linecap:square;stroke-linejoin:round" transform="matrix(.26824 0 0 .26565 -524.7 -223.442)"/><path d="m2064.29 852.326.778.781h6.409v6.407l.763.765v-7.953z" style="fill:#3b4044;fill-opacity:1;stroke-width:2.73946;stroke-linecap:square;stroke-linejoin:round" transform="matrix(.26824 0 0 .26565 -524.7 -223.442)"/><path d="M2064.289 852.326h7.951v7.953h-7.951z" style="fill:none;stroke:none" transform="matrix(.26824 0 0 .26565 -522.12 -223.442)"/><path d="M2064.29 852.326v7.953h7.95l-.763-.765h-6.409v-6.407z" style="fill:#222426;fill-opacity:1;stroke-width:2.73946;stroke-linecap:square;stroke-linejoin:round" transform="matrix(.26824 0 0 .26565 -522.12 -223.442)"/><path d="m2064.29 852.326.778.781h6.409v6.407l.763.765v-7.953z" style="fill:#3b4044;fill-opacity:1;stroke-width:2.73946;stroke-linecap:square;stroke-linejoin:round" transform="matrix(.26824 0 0 .26565 -522.12 -223.442)"/><path d="M2064.289 852.326h7.951v7.953h-7.951z" style="fill:none;stroke:none" transform="matrix(.26824 0 0 .26565 -519.54 -223.442)"/><path d="M2064.29 852.326v7.953h7.95l-.763-.765h-6.409v-6.407z" style="fill:#222426;fill-opacity:1;stroke-width:2.73946;stroke-linecap:square;stroke-linejoin:round" transform="matrix(.26824 0 0 .26565 -519.54 -223.442)"/><path d="m2064.29 852.326.778.781h6.409v6.407l.763.765v-7.953z" style="fill:#3b4044;fill-opacity:1;stroke-width:2.73946;stroke-linecap:square;stroke-linejoin:round" transform="matrix(.26824 0 0 .26565 -519.54 -223.442)"/><path d="M2064.289 852.326h7.951v7.953h-7.951z" style="fill:none;stroke:none" transform="matrix(.26824 0 0 .26565 -553.076 -221.155)"/><path d="M2064.29 852.326v6.335c.144.929.985 1.451 1.87 1.618h6.08l-.763-.765h-4.63c-1.404-.122-1.871-.894-1.779-2.056v-4.35z" style="fill:#222426;fill-opacity:1;stroke-width:2.73946;stroke-linecap:square;stroke-linejoin:round" transform="matrix(.26824 0 0 .26565 -553.076 -221.155)"/><path d="m2064.29 852.326.778.781h6.409v6.407l.763.765v-7.953z" style="fill:#3b4044;fill-opacity:1;stroke-width:2.73946;stroke-linecap:square;stroke-linejoin:round" transform="matrix(.26824 0 0 .26565 -553.076 -221.155)"/><path d="M2064.289 852.326h7.951v7.953h-7.951z" style="fill:none;stroke:none" transform="matrix(.26824 0 0 .26565 -550.496 -221.155)"/><path d="M2064.29 852.326v7.953h7.95l-.763-.765h-6.409v-6.407z" style="fill:#222426;fill-opacity:1;stroke-width:2.73946;stroke-linecap:square;stroke-linejoin:round" transform="matrix(.26824 0 0 .26565 -550.496 -221.155)"/><path d="m2064.29 852.326.778.781h6.409v6.407l.763.765v-7.953z" style="fill:#3b4044;fill-opacity:1;stroke-width:2.73946;stroke-linecap:square;stroke-linejoin:round" transform="matrix(.26824 0 0 .26565 -550.496 -221.155)"/><path d="M2064.289 852.326h7.951v7.953h-7.951z" style="fill:none;stroke:none" transform="matrix(.26824 0 0 .26565 -547.916 -221.155)"/><path d="M2064.29 852.326v7.953h7.95l-.763-.765h-6.409v-6.407z" style="fill:#222426;fill-opacity:1;stroke-width:2.73946;stroke-linecap:square;stroke-linejoin:round" transform="matrix(.26824 0 0 .26565 -547.916 -221.155)"/><path d="m2064.29 852.326.778.781h6.409v6.407l.763.765v-7.953z" style="fill:#3b4044;fill-opacity:1;stroke-width:2.73946;stroke-linecap:square;stroke-linejoin:round" transform="matrix(.26824 0 0 .26565 -547.916 -221.155)"/><path d="M2064.289 852.326h7.951v7.953h-7.951z" style="fill:none;stroke:none" transform="matrix(.26824 0 0 .26565 -545.337 -221.155)"/><path d="M2064.29 852.326v7.953h7.95l-.763-.765h-6.409v-6.407z" style="fill:#222426;fill-opacity:1;stroke-width:2.73946;stroke-linecap:square;stroke-linejoin:round" transform="matrix(.26824 0 0 .26565 -545.337 -221.155)"/><path d="m2064.29 852.326.778.781h6.409v6.407l.763.765v-7.953z" style="fill:#3b4044;fill-opacity:1;stroke-width:2.73946;stroke-linecap:square;stroke-linejoin:round" transform="matrix(.26824 0 0 .26565 -545.337 -221.155)"/><path d="M2064.289 852.326h7.951v7.953h-7.951z" style="fill:none;stroke:none" transform="matrix(.26824 0 0 .26565 -542.757 -221.155)"/><path d="M2064.29 852.326v7.953h7.95l-.763-.765h-6.409v-6.407z" style="fill:#222426;fill-opacity:1;stroke-width:2.73946;stroke-linecap:square;stroke-linejoin:round" transform="matrix(.26824 0 0 .26565 -542.757 -221.155)"/><path d="m2064.29 852.326.778.781h6.409v6.407l.763.765v-7.953z" style="fill:#3b4044;fill-opacity:1;stroke-width:2.73946;stroke-linecap:square;stroke-linejoin:round" transform="matrix(.26824 0 0 .26565 -542.757 -221.155)"/><path d="M2064.289 852.326h7.951v7.953h-7.951z" style="fill:none;stroke:none" transform="matrix(.26824 0 0 .26565 -540.178 -221.155)"/><path d="M2064.29 852.326v7.953h7.95l-.763-.765h-6.409v-6.407z" style="fill:#222426;fill-opacity:1;stroke-width:2.73946;stroke-linecap:square;stroke-linejoin:round" transform="matrix(.26824 0 0 .26565 -540.178 -221.155)"/><path d="m2064.29 852.326.778.781h6.409v6.407l.763.765v-7.953z" style="fill:#3b4044;fill-opacity:1;stroke-width:2.73946;stroke-linecap:square;stroke-linejoin:round" transform="matrix(.26824 0 0 .26565 -540.178 -221.155)"/><path d="M2064.289 852.326h7.951v7.953h-7.951z" style="fill:none;stroke:none" transform="matrix(.26824 0 0 .26565 -537.598 -221.155)"/><path d="M2064.29 852.326v7.953h7.95l-.763-.765h-6.409v-6.407z" style="fill:#222426;fill-opacity:1;stroke-width:2.73946;stroke-linecap:square;stroke-linejoin:round" transform="matrix(.26824 0 0 .26565 -537.598 -221.155)"/><path d="m2064.29 852.326.778.781h6.409v6.407l.763.765v-7.953z" style="fill:#3b4044;fill-opacity:1;stroke-width:2.73946;stroke-linecap:square;stroke-linejoin:round" transform="matrix(.26824 0 0 .26565 -537.598 -221.155)"/><path d="M2064.289 852.326h7.951v7.953h-7.951z" style="fill:none;stroke:none" transform="matrix(.26824 0 0 .26565 -535.018 -221.155)"/><path d="M2064.29 852.326v7.953h7.95l-.763-.765h-6.409v-6.407z" style="fill:#222426;fill-opacity:1;stroke-width:2.73946;stroke-linecap:square;stroke-linejoin:round" transform="matrix(.26824 0 0 .26565 -535.018 -221.155)"/><path d="m2064.29 852.326.778.781h6.409v6.407l.763.765v-7.953z" style="fill:#3b4044;fill-opacity:1;stroke-width:2.73946;stroke-linecap:square;stroke-linejoin:round" transform="matrix(.26824 0 0 .26565 -535.018 -221.155)"/><path d="M2064.289 852.326h7.951v7.953h-7.951z" style="fill:none;stroke:none" transform="matrix(.26824 0 0 .26565 -532.439 -221.155)"/><path d="M2064.29 852.326v7.953h7.95l-.763-.765h-6.409v-6.407z" style="fill:#222426;fill-opacity:1;stroke-width:2.73946;stroke-linecap:square;stroke-linejoin:round" transform="matrix(.26824 0 0 .26565 -532.439 -221.155)"/><path d="m2064.29 852.326.778.781h6.409v6.407l.763.765v-7.953z" style="fill:#3b4044;fill-opacity:1;stroke-width:2.73946;stroke-linecap:square;stroke-linejoin:round" transform="matrix(.26824 0 0 .26565 -532.439 -221.155)"/><path d="M2064.289 852.326h7.951v7.953h-7.951z" style="fill:none;stroke:none" transform="matrix(.26824 0 0 .26565 -529.86 -221.155)"/><path d="M2064.29 852.326v7.953h7.95l-.763-.765h-6.409v-6.407z" style="fill:#222426;fill-opacity:1;stroke-width:2.73946;stroke-linecap:square;stroke-linejoin:round" transform="matrix(.26824 0 0 .26565 -529.86 -221.155)"/><path d="m2064.29 852.326.778.781h6.409v6.407l.763.765v-7.953z" style="fill:#3b4044;fill-opacity:1;stroke-width:2.73946;stroke-linecap:square;stroke-linejoin:round" transform="matrix(.26824 0 0 .26565 -529.86 -221.155)"/><path d="M2064.289 852.326h7.951v7.953h-7.951z" style="fill:none;stroke:none" transform="matrix(.26824 0 0 .26565 -527.28 -221.155)"/><path d="M2064.29 852.326v7.953h7.95l-.763-.765h-6.409v-6.407z" style="fill:#222426;fill-opacity:1;stroke-width:2.73946;stroke-linecap:square;stroke-linejoin:round" transform="matrix(.26824 0 0 .26565 -527.28 -221.155)"/><path d="m2064.29 852.326.778.781h6.409v6.407l.763.765v-7.953z" style="fill:#3b4044;fill-opacity:1;stroke-width:2.73946;stroke-linecap:square;stroke-linejoin:round" transform="matrix(.26824 0 0 .26565 -527.28 -221.155)"/><path d="M2064.289 852.326h7.951v7.953h-7.951z" style="fill:none;stroke:none" transform="matrix(.26824 0 0 .26565 -524.7 -221.155)"/><path d="M2064.29 852.326v7.953h7.95l-.763-.765h-6.409v-6.407z" style="fill:#222426;fill-opacity:1;stroke-width:2.73946;stroke-linecap:square;stroke-linejoin:round" transform="matrix(.26824 0 0 .26565 -524.7 -221.155)"/><path d="m2064.29 852.326.778.781h6.409v6.407l.763.765v-7.953z" style="fill:#3b4044;fill-opacity:1;stroke-width:2.73946;stroke-linecap:square;stroke-linejoin:round" transform="matrix(.26824 0 0 .26565 -524.7 -221.155)"/><path d="M2064.289 852.326h7.951v7.953h-7.951z" style="fill:none;stroke:none" transform="matrix(.26824 0 0 .26565 -522.12 -221.155)"/><path d="M2064.29 852.326v7.953h7.95l-.763-.765h-6.409v-6.407z" style="fill:#222426;fill-opacity:1;stroke-width:2.73946;stroke-linecap:square;stroke-linejoin:round" transform="matrix(.26824 0 0 .26565 -522.12 -221.155)"/><path d="m2064.29 852.326.778.781h6.409v6.407l.763.765v-7.953z" style="fill:#3b4044;fill-opacity:1;stroke-width:2.73946;stroke-linecap:square;stroke-linejoin:round" transform="matrix(.26824 0 0 .26565 -522.12 -221.155)"/><path d="M2191.068 869.621h8.061v7.985h-8.061z" style="fill:none;stroke:none;stroke-width:1.00892" transform="translate(-545.526 -224.82)scale(.26458)"/><path d="M2191.068 869.62v7.986h6.863l-.775-.769h-5.298v-6.432z" style="fill:#222426;fill-opacity:1;stroke-width:2.76392;stroke-linecap:square;stroke-linejoin:round" transform="translate(-545.526 -224.82)scale(.26458)"/><path d="m2191.068 869.62.79.785h6.497v4.987c.094.694-.489 1.068-1.064 1.445l.427.769c1.305-.573 1.43-1.353 1.411-2.159v-5.826z" style="fill:#3b4044;fill-opacity:1;stroke-width:2.76392;stroke-linecap:square;stroke-linejoin:round" transform="translate(-545.526 -224.82)scale(.26458)"/><g fill="none"><path d="m772.35 656.744-7.061 7.061M772.35 656.744h62.05M834.4 656.744l7.06 7.061M765.289 663.805h76.171M834.4 594.694v62.05M834.4 594.694l7.06-7.061M841.46 587.633v76.172M772.35 594.694v62.05M772.35 594.694h62.05M742.694 594.694l7.061-7.061M680.644 594.694h62.05M680.644 594.694l-7.06-7.061M673.584 587.633h76.171M680.644 594.694v62.05M680.644 656.744l-7.06 7.061M673.584 587.633v76.172M680.644 656.744h62.05M742.694 656.744l7.061 7.061M673.584 663.805h76.171M742.694 594.694v62.05M749.755 587.633v76.172M284.167 594.694l7.061-7.061M222.117 594.694h62.05M222.117 594.694l-7.061-7.061M215.056 587.633h76.172M222.117 594.694v62.05M222.117 656.744l-7.061 7.061M215.056 587.633v76.172M222.117 656.744h62.05M284.167 656.744l7.061 7.061M215.056 663.805h76.172M284.167 594.694v62.05M291.228 587.633v76.172M1476.34 759.437l7.06-7.061M1414.29 759.437h62.05M1414.29 759.437l-7.06-7.061M1407.23 752.376h76.17M1414.29 759.437v62.05M1414.29 821.487l-7.06 7.061M1407.23 752.376v76.172M1414.29 821.487h47.91M1469.26 828.548l-7.06-7.061M1407.23 828.548h62.03M1483.4 752.376v62.035M1476.34 807.35l7.06 7.061M1476.34 759.437v47.913M1462.2 821.487l2.02-.144 1.97-.428 1.89-.704 1.77-.966 1.61-1.207 1.43-1.426 1.21-1.614.96-1.77.71-1.891.42-1.972.15-2.015M1384.63 759.437l7.06-7.061M1322.58 759.437h62.05M1322.58 759.437l-7.06-7.061M1315.52 752.376h76.17M1322.58 759.437v62.05M1322.58 821.487l-7.06 7.061M1315.52 752.376v76.172M1322.58 821.487h62.05M1384.63 821.487l7.06 7.061M1315.52 828.548h76.17M1384.63 759.437v62.05M1391.69 752.376v76.172M1292.93 759.437l7.06-7.061M1230.88 759.437h62.05M1230.88 759.437l-7.06-7.061M1223.82 752.376h76.17M1230.88 759.437v62.05M1230.88 821.487l-7.06 7.061M1223.82 752.376v76.172M1230.88 821.487h62.05M1292.93 821.487l7.06 7.061M1223.82 828.548h76.17M1292.93 759.437v62.05M1299.99 752.376v76.172M1201.22 759.437l7.06-7.061M1139.17 759.437h62.05M1139.17 759.437l-7.06-7.061M1132.11 752.376h76.17M1139.17 759.437v62.05M1139.17 821.487l-7.06 7.061M1132.11 752.376v76.172M1139.17 821.487h62.05M1201.22 821.487l7.06 7.061M1132.11 828.548h76.17M1201.22 759.437v62.05M1208.28 752.376v76.172M1109.52 759.437l7.06-7.061M1047.47 759.437h62.05M1047.47 759.437l-7.06-7.061M1040.41 752.376h76.17M1047.47 759.437v62.05M1047.47 821.487l-7.06 7.061M1040.41 752.376v76.172M1047.47 821.487h62.05M1109.52 821.487l7.06 7.061M1040.41 828.548h76.17M1109.52 759.437v62.05M1116.58 752.376v76.172M1017.81 759.437l7.06-7.061M955.76 759.437h62.05M955.76 759.437l-7.06-7.061M948.7 752.376h76.17M955.76 759.437v62.05M955.76 821.487l-7.06 7.061M948.7 752.376v76.172M955.76 821.487h62.05M1017.81 821.487l7.06 7.061M948.7 828.548h76.17M1017.81 759.437v62.05M1024.87 752.376v76.172M926.105 759.437l7.061-7.061M864.055 759.437h62.05M864.055 759.437l-7.061-7.061M856.994 752.376h76.172M864.055 759.437v62.05M864.055 821.487l-7.061 7.061M856.994 752.376v76.172M864.055 821.487h62.05M926.105 821.487l7.061 7.061M856.994 828.548h76.172M926.105 759.437v62.05M933.166 752.376v76.172M834.4 759.437l7.06-7.061M772.35 759.437h62.05M772.35 759.437l-7.061-7.061M765.289 752.376h76.171M772.35 759.437v62.05M772.35 821.487l-7.061 7.061M765.289 752.376v76.172M772.35 821.487h62.05M834.4 821.487l7.06 7.061M765.289 828.548h76.171M834.4 759.437v62.05M841.46 752.376v76.172M742.694 759.437l7.061-7.061M680.644 759.437h62.05M680.644 759.437l-7.06-7.061M673.584 752.376h76.171M680.644 759.437v62.05M680.644 821.487l-7.06 7.061M673.584 752.376v76.172M680.644 821.487h62.05M742.694 821.487l7.061 7.061M673.584 828.548h76.171M742.694 759.437v62.05M749.755 752.376v76.172M1109.52 594.694l7.06-7.061M1047.47 594.694h62.05M1047.47 594.694l-7.06-7.061M1040.41 587.633h76.17M1047.47 594.694v62.05M1047.47 656.744l-7.06 7.061M1040.41 587.633v76.172M1047.47 656.744h62.05M1109.52 656.744l7.06 7.061M1040.41 663.805h76.17M1109.52 594.694v62.05M1116.58 587.633v76.172M1201.22 594.694l7.06-7.061M1139.17 594.694h62.05M1139.17 594.694l-7.06-7.061M1132.11 587.633h76.17M1139.17 594.694v62.05M1139.17 656.744l-7.06 7.061M1132.11 587.633v76.172M1139.17 656.744h62.05M1201.22 656.744l7.06 7.061M1132.11 663.805h76.17M1201.22 594.694v62.05M1208.28 587.633v76.172M1292.93 594.694l7.06-7.061M1230.88 594.694h62.05M1230.88 594.694l-7.06-7.061M1223.82 587.633h76.17M1230.88 594.694v62.05M1230.88 656.744l-7.06 7.061M1223.82 587.633v76.172M1230.88 656.744h62.05M1292.93 656.744l7.06 7.061M1223.82 663.805h76.17M1292.93 594.694v62.05M1299.99 587.633v76.172M1384.63 594.694l7.06-7.061M1322.58 594.694h62.05M1322.58 594.694l-7.06-7.061M1315.52 587.633h76.17M1322.58 594.694v62.05M1322.58 656.744l-7.06 7.061M1315.52 587.633v76.172M1322.58 656.744h62.05M1384.63 656.744l7.06 7.061M1315.52 663.805h76.17M1384.63 594.694v62.05M1391.69 587.633v76.172M467.578 677.065l7.061-7.06M405.528 677.065h62.05M405.528 677.065l-7.061-7.06M398.467 670.005h76.172M405.528 677.065v62.05M405.528 739.115l-7.061 7.061M398.467 670.005v76.171M405.528 739.115h62.05M467.578 739.115l7.061 7.061M398.467 746.176h76.172M467.578 677.065v62.05M474.639 670.005v76.171M375.873 677.065l7.06-7.06M313.822 677.065h62.051M313.822 677.065l-7.06-7.06M306.762 670.005h76.171M313.822 677.065v62.05M313.822 739.115l-7.06 7.061M306.762 670.005v76.171M313.822 739.115h62.051M375.873 739.115l7.06 7.061M306.762 746.176h76.171M375.873 677.065v62.05M382.933 670.005v76.171M284.167 677.065l7.061-7.06M222.117 677.065h62.05M222.117 677.065l-7.061-7.06M215.056 670.005h76.172M222.117 677.065v62.05M222.117 739.115l-7.061 7.061M215.056 670.005v76.171M222.117 739.115h62.05M284.167 739.115l7.061 7.061M215.056 746.176h76.172M284.167 677.065v62.05M291.228 670.005v76.171M1476.34 594.694l7.06-7.061M1414.29 594.694h62.05M1414.29 594.694l-7.06-7.061M1407.23 587.633h76.17M1414.29 594.694v62.05M1414.29 656.744l-7.06 7.061M1407.23 587.633v76.172M1414.29 656.744h62.05M1476.34 656.744l7.06 7.061M1407.23 663.805h76.17M1476.34 594.694v62.05M1483.4 587.633v76.172M1017.81 594.694l7.06-7.061M955.76 594.694h62.05M955.76 594.694l-7.06-7.061M948.7 587.633h76.17M955.76 594.694v62.05M955.76 656.744l-7.06 7.061M948.7 587.633v76.172M955.76 656.744h62.05M1017.81 656.744l7.06 7.061M948.7 663.805h76.17M1017.81 594.694v62.05M1024.87 587.633v76.172M926.105 594.694l7.061-7.061M864.055 594.694h62.05M864.055 594.694l-7.061-7.061M856.994 587.633h76.172M864.055 594.694v62.05M864.055 656.744l-7.061 7.061M856.994 587.633v76.172M864.055 656.744h62.05M926.105 656.744l7.061 7.061M856.994 663.805h76.172M926.105 594.694v62.05M933.166 587.633v76.172M772.35 594.694l-7.061-7.061M765.289 587.633h76.171M765.289 587.633v76.172M405.528 821.487l-7.061 7.061M405.528 821.487h62.05M467.578 821.487l7.061 7.061M398.467 828.548h76.172M467.578 759.437v62.05M467.578 759.437l7.061-7.061M474.639 752.376v76.172M405.528 759.437v62.05M405.528 759.437h62.05M559.283 759.437l7.061-7.061M497.233 759.437h62.05M497.233 759.437l-7.06-7.061M490.173 752.376h76.171M497.233 759.437v62.05M497.233 821.487l-7.06 7.061M490.173 752.376v76.172M497.233 821.487h62.05M559.283 821.487l7.061 7.061M490.173 828.548h76.171M559.283 759.437v62.05M566.344 752.376v76.172M650.989 594.694l7.061-7.061M588.939 594.694h62.05M588.939 594.694l-7.061-7.061M581.878 587.633h76.172M588.939 594.694v62.05M588.939 656.744l-7.061 7.061M581.878 587.633v76.172M588.939 656.744h62.05M650.989 656.744l7.061 7.061M581.878 663.805h76.172M650.989 594.694v62.05M658.05 587.633v76.172M559.283 594.694l7.061-7.061M497.233 594.694h62.05M497.233 594.694l-7.06-7.061M490.173 587.633h76.171M497.233 594.694v62.05M497.233 656.744l-7.06 7.061M490.173 587.633v76.172M497.233 656.744h62.05M559.283 656.744l7.061 7.061M490.173 663.805h76.171M559.283 594.694v62.05M566.344 587.633v76.172M467.578 594.694l7.061-7.061M405.528 594.694h62.05M405.528 594.694l-7.061-7.061M398.467 587.633h76.172M405.528 594.694v62.05M405.528 656.744l-7.061 7.061M398.467 587.633v76.172M405.528 656.744h62.05M467.578 656.744l7.061 7.061M398.467 663.805h76.172M467.578 594.694v62.05M474.639 587.633v76.172M375.873 594.694l7.06-7.061M313.822 594.694h62.051M313.822 594.694l-7.06-7.061M306.762 587.633h76.171M313.822 594.694v62.05M313.822 656.744l-7.06 7.061M306.762 587.633v76.172M313.822 656.744h62.051M375.873 656.744l7.06 7.061M306.762 663.805h76.171M375.873 594.694v62.05M382.933 587.633v76.172M284.167 759.437l7.061-7.061M222.117 759.437h62.05M222.117 759.437l-7.061-7.061M215.056 752.376h76.172M222.117 759.437v47.913M215.056 814.411l7.061-7.061M215.056 752.376v62.035M284.167 821.487l7.061 7.061M229.193 828.548h62.035M236.254 821.487l-7.061 7.061M236.254 821.487h47.913M284.167 759.437v62.05M291.228 752.376v76.172M222.117 807.35l.144 2.015.428 1.972.704 1.891.966 1.77 1.207 1.614 1.426 1.426 1.614 1.207 1.77.966 1.89.704 1.973.428 2.015.144M1476.34 677.065l7.06-7.06M1414.29 677.065h62.05M1414.29 677.065l-7.06-7.06M1407.23 670.005h76.17M1414.29 677.065v62.05M1414.29 739.115l-7.06 7.061M1407.23 670.005v76.171M1414.29 739.115h62.05M1476.34 739.115l7.06 7.061M1407.23 746.176h76.17M1476.34 677.065v62.05M1483.4 670.005v76.171M1384.63 677.065l7.06-7.06M1322.58 677.065h62.05M1322.58 677.065l-7.06-7.06M1315.52 670.005h76.17M1322.58 677.065v62.05M1322.58 739.115l-7.06 7.061M1315.52 670.005v76.171M1322.58 739.115h62.05M1384.63 739.115l7.06 7.061M1315.52 746.176h76.17M1384.63 677.065v62.05M1391.69 670.005v76.171M1292.93 677.065l7.06-7.06M1230.88 677.065h62.05M1230.88 677.065l-7.06-7.06M1223.82 670.005h76.17M1230.88 677.065v62.05M1230.88 739.115l-7.06 7.061M1223.82 670.005v76.171M1230.88 739.115h62.05M1292.93 739.115l7.06 7.061M1223.82 746.176h76.17M1292.93 677.065v62.05M1299.99 670.005v76.171M375.873 759.437l7.06-7.061M313.822 759.437h62.051M313.822 759.437l-7.06-7.061M306.762 752.376h76.171M313.822 759.437v62.05M313.822 821.487l-7.06 7.061M306.762 752.376v76.172M313.822 821.487h62.051M375.873 821.487l7.06 7.061M306.762 828.548h76.171M375.873 759.437v62.05M382.933 752.376v76.172M405.528 759.437l-7.061-7.061M398.467 752.376h76.172M398.467 752.376v76.172M1017.81 677.065v62.05M955.76 739.115h62.05M955.76 677.065v62.05M955.76 677.065h62.05M926.105 677.065l7.061-7.06M864.055 677.065h62.05M864.055 677.065l-7.061-7.06M856.994 670.005h76.172M864.055 677.065v62.05M864.055 739.115l-7.061 7.061M856.994 670.005v76.171M864.055 739.115h62.05M926.105 739.115l7.061 7.061M856.994 746.176h76.172M926.105 677.065v62.05M933.166 670.005v76.171M834.4 677.065l7.06-7.06M772.35 677.065h62.05M772.35 677.065l-7.061-7.06M765.289 670.005h76.171M772.35 677.065v62.05M772.35 739.115l-7.061 7.061M765.289 670.005v76.171M650.989 759.437l7.061-7.061M588.939 759.437h62.05M588.939 759.437l-7.061-7.061M581.878 752.376h76.172M588.939 759.437v62.05M588.939 821.487l-7.061 7.061M581.878 752.376v76.172M588.939 821.487h62.05M650.989 821.487l7.061 7.061M581.878 828.548h76.172M650.989 759.437v62.05M658.05 752.376v76.172M1201.22 677.065l7.06-7.06M1139.17 677.065h62.05M1139.17 677.065l-7.06-7.06M1132.11 670.005h76.17M1139.17 677.065v62.05M1139.17 739.115l-7.06 7.061M1132.11 670.005v76.171M1139.17 739.115h62.05M1201.22 739.115l7.06 7.061M1132.11 746.176h76.17M1201.22 677.065v62.05M1208.28 670.005v76.171M1109.52 677.065l7.06-7.06M1047.47 677.065h62.05M1047.47 677.065l-7.06-7.06M1040.41 670.005h76.17M1047.47 677.065v62.05M1047.47 739.115l-7.06 7.061M1040.41 670.005v76.171M1047.47 739.115h62.05M1109.52 739.115l7.06 7.061M1040.41 746.176h76.17M1109.52 677.065v62.05M1116.58 670.005v76.171M1017.81 677.065l7.06-7.06M955.76 677.065l-7.06-7.06M948.7 670.005h76.17M955.76 739.115l-7.06 7.061M948.7 670.005v76.171M1017.81 739.115l7.06 7.061M948.7 746.176h76.17M1024.87 670.005v76.171M229.193 828.548l-2.015-.144-1.972-.428-1.891-.704-1.77-.966-1.614-1.208-1.425-1.425-1.208-1.614-.966-1.77-.704-1.891-.428-1.973-.144-2.014M742.694 739.115l7.061 7.061M742.694 677.065v62.05M742.694 677.065l7.061-7.06M749.755 670.005v76.171M680.644 739.115h62.05M680.644 677.065v62.05M680.644 677.065h62.05M650.989 677.065l7.061-7.06M588.939 677.065h62.05M588.939 677.065l-7.061-7.06M581.878 670.005h76.172M588.939 677.065v62.05M588.939 739.115l-7.061 7.061M581.878 670.005v76.171M588.939 739.115h62.05M650.989 739.115l7.061 7.061M581.878 746.176h76.172M650.989 677.065v62.05M658.05 670.005v76.171M772.35 739.115h62.05M834.4 739.115l7.06 7.061M765.289 746.176h76.171M834.4 677.065v62.05M841.46 670.005v76.171M680.644 677.065l-7.06-7.06M673.584 670.005h76.171M680.644 739.115l-7.06 7.061M673.584 670.005v76.171M673.584 746.176h76.171M1483.4 814.411l-.15 2.014-.42 1.973-.71 1.891-.96 1.77-1.21 1.614-1.43 1.425-1.61 1.208-1.77.966-1.89.704-1.97.428-2.02.144M559.283 677.065l7.061-7.06M497.233 677.065h62.05M497.233 677.065l-7.06-7.06M490.173 670.005h76.171M497.233 677.065v62.05M497.233 739.115l-7.06 7.061M490.173 670.005v76.171M497.233 739.115h62.05M559.283 739.115l7.061 7.061M490.173 746.176h76.171M559.283 677.065v62.05M566.344 670.005v76.171M1504.66 566.376H193.799M1504.66 814.376v-248M1469.23 849.805l3.27-.151 3.24-.453 3.18-.749 3.11-1.04 2.99-1.322 2.86-1.592 2.7-1.849 2.52-2.091 2.31-2.314 2.09-2.517 1.85-2.7 1.59-2.859 1.32-2.994 1.04-3.102.75-3.186.46-3.241.15-3.269M1469.23 849.805H229.228M193.799 814.376l.151 3.269.452 3.241.75 3.186 1.04 3.102 1.321 2.994 1.593 2.859 1.849 2.7 2.091 2.517 2.314 2.314 2.517 2.091 2.7 1.849 2.859 1.592 2.993 1.322 3.103 1.04 3.186.749 3.241.453 3.269.151M193.799 814.376v-248" style="font-style:normal;font-weight:400;font-size:12px;font-family:Arial;fill-opacity:1;fill-rule:evenodd;stroke:#000;stroke-width:3.54331;stroke-linecap:round;stroke-linejoin:bevel;stroke-dasharray:none;stroke-opacity:1" transform="matrix(.02815 0 0 .02788 -5.406 -15.74)"/></g></svg>